<svg width="726" height="201" viewBox="0 0 726 201" fill="none" xmlns="http://www.w3.org/2000/svg">
<path fill-rule="evenodd" clip-rule="evenodd" d="M320.333 0.266949C319.229 0.418891 315.618 0.899543 312.307 1.33431C245.82 10.0755 157.012 49.1493 96.7014 96.1971C45.1222 136.433 -0.697365 184.969 0.00803927 198.622C0.168942 201.731 1.78479 201.781 6.89435 198.834C11.4851 196.185 11.1809 195.815 6.03046 197.783C0.90163 199.742 0.710232 199.36 3.94434 193.616C17.4377 169.648 84.3636 111.032 130.24 83.0022C204.958 37.3498 278.867 12.1282 338.991 11.7641C361.993 11.625 367.881 13.4814 367.881 20.8723C367.881 30.8952 344.645 58.8796 329.561 67.0235C283.901 91.675 224.598 134.292 218.046 147.162C215.864 151.447 216.941 157.165 219.93 157.165C225.812 157.165 271.672 125.119 308.897 94.9974C321.862 84.5066 323.65 83.513 361.06 66.0149C417.819 39.4664 447.127 30.723 483.843 29.3849C498.949 28.835 500.461 29.4405 498.284 35.1714C493.897 46.722 461.256 76.3341 404.997 119.804C395.058 127.483 392.597 132.758 395.988 139.115L397.212 141.409L401.506 141.015C404.755 140.717 408.42 139.507 416.572 136.044C444.268 124.277 496.742 104.828 522.163 96.9072C565.396 83.4363 612.747 74.0324 679.655 65.6282C689.63 64.3758 697.475 62.9625 702.928 61.437C707.452 60.1719 714.494 58.5434 718.577 57.819L726 56.5012L720.984 55.9528C718.226 55.6512 712.357 54.4898 707.944 53.3721C688.049 48.3347 655.659 51.5638 584.759 65.653C539.06 74.7342 484.458 92.2684 434.765 113.819C431.496 115.236 428.517 116.385 428.145 116.372C427.772 116.357 431.801 112.863 437.097 108.606C497.413 60.1259 511.118 43.2063 505.4 24.2797C503.096 16.6571 499.18 14.8804 484.646 14.8676C449.621 14.836 413.09 25.4682 363.288 50.1881C356.049 53.7813 356.069 53.7993 360.703 47.8495C378.099 25.5141 377.268 7.8926 358.523 1.57047C355.385 0.512893 325.863 -0.495768 320.333 0.266949Z" fill="#13BBA7"/>
</svg>
